<?xml version="1.0" standalone="no"?><svg xmlns="http://www.w3.org/2000/svg" viewBox="0 0 1440 320"><path fill="#0099ff" fill-opacity="1" d="M0,96L13.3,122.7C26.7,149,53,203,80,192C106.7,181,133,107,160,85.3C186.7,64,213,96,240,133.3C266.7,171,293,213,320,218.7C346.7,224,373,192,400,160C426.7,128,453,96,480,117.3C506.7,139,533,213,560,229.3C586.7,245,613,203,640,176C666.7,149,693,139,720,144C746.7,149,773,171,800,170.7C826.7,171,853,149,880,128C906.7,107,933,85,960,69.3C986.7,53,1013,43,1040,69.3C1066.7,96,1093,160,1120,154.7C1146.7,149,1173,75,1200,64C1226.7,53,1253,107,1280,128C1306.7,149,1333,139,1360,117.3C1386.7,96,1413,64,1427,48L1440,32L1440,320L1426.7,320C1413.3,320,1387,320,1360,320C1333.3,320,1307,320,1280,320C1253.3,320,1227,320,1200,320C1173.3,320,1147,320,1120,320C1093.3,320,1067,320,1040,320C1013.3,320,987,320,960,320C933.3,320,907,320,880,320C853.3,320,827,320,800,320C773.3,320,747,320,720,320C693.3,320,667,320,640,320C613.3,320,587,320,560,320C533.3,320,507,320,480,320C453.3,320,427,320,400,320C373.3,320,347,320,320,320C293.3,320,267,320,240,320C213.3,320,187,320,160,320C133.3,320,107,320,80,320C53.3,320,27,320,13,320L0,320Z"></path></svg>